<mxfile host="app.diagrams.net" modified="2023-04-19T07:07:55.956Z" agent="Mozilla/5.0 (Windows NT 10.0; Win64; x64) AppleWebKit/537.36 (KHTML, like Gecko) Chrome/112.0.0.0 Safari/537.36" etag="OzZEh1MOqy4rdRbMizlp" version="21.1.9" type="github">
  <diagram name="Страница 1" id="rTP60t_XRynP9NZLZTd-">
    <mxGraphModel dx="1257" dy="697" grid="1" gridSize="10" guides="1" tooltips="1" connect="1" arrows="1" fold="1" page="1" pageScale="1" pageWidth="827" pageHeight="1169" math="0" shadow="0">
      <root>
        <mxCell id="0" />
        <mxCell id="1" parent="0" />
        <mxCell id="ek-TfXTonzhBqveceZcR-1" value="" style="rounded=0;whiteSpace=wrap;html=1;" vertex="1" parent="1">
          <mxGeometry x="30" y="20" width="120" height="60" as="geometry" />
        </mxCell>
        <mxCell id="ek-TfXTonzhBqveceZcR-2" value="" style="ellipse;whiteSpace=wrap;html=1;" vertex="1" parent="1">
          <mxGeometry x="30" y="120" width="120" height="80" as="geometry" />
        </mxCell>
        <mxCell id="ek-TfXTonzhBqveceZcR-3" value="Logical Decisions" style="text;html=1;strokeColor=none;fillColor=none;align=center;verticalAlign=middle;whiteSpace=wrap;rounded=0;" vertex="1" parent="1">
          <mxGeometry x="180" y="35" width="60" height="30" as="geometry" />
        </mxCell>
        <mxCell id="ek-TfXTonzhBqveceZcR-4" value="UI Widgets" style="text;html=1;strokeColor=none;fillColor=none;align=center;verticalAlign=middle;whiteSpace=wrap;rounded=0;" vertex="1" parent="1">
          <mxGeometry x="190" y="145" width="60" height="30" as="geometry" />
        </mxCell>
        <mxCell id="ek-TfXTonzhBqveceZcR-7" style="edgeStyle=orthogonalEdgeStyle;rounded=0;orthogonalLoop=1;jettySize=auto;html=1;exitX=0.5;exitY=1;exitDx=0;exitDy=0;entryX=0.5;entryY=0;entryDx=0;entryDy=0;" edge="1" parent="1" source="ek-TfXTonzhBqveceZcR-5" target="ek-TfXTonzhBqveceZcR-6">
          <mxGeometry relative="1" as="geometry" />
        </mxCell>
        <mxCell id="ek-TfXTonzhBqveceZcR-5" value="MyApp" style="rounded=0;whiteSpace=wrap;html=1;" vertex="1" parent="1">
          <mxGeometry x="480" y="20" width="120" height="60" as="geometry" />
        </mxCell>
        <mxCell id="ek-TfXTonzhBqveceZcR-22" style="edgeStyle=orthogonalEdgeStyle;rounded=0;orthogonalLoop=1;jettySize=auto;html=1;exitX=1;exitY=0.5;exitDx=0;exitDy=0;entryX=0;entryY=0.5;entryDx=0;entryDy=0;" edge="1" parent="1" source="ek-TfXTonzhBqveceZcR-6" target="ek-TfXTonzhBqveceZcR-15">
          <mxGeometry relative="1" as="geometry" />
        </mxCell>
        <mxCell id="ek-TfXTonzhBqveceZcR-6" value="RootWidget&lt;br&gt;State: Authentication" style="rounded=0;whiteSpace=wrap;html=1;" vertex="1" parent="1">
          <mxGeometry x="480" y="145" width="120" height="60" as="geometry" />
        </mxCell>
        <mxCell id="ek-TfXTonzhBqveceZcR-8" value="LoginScreen" style="ellipse;whiteSpace=wrap;html=1;" vertex="1" parent="1">
          <mxGeometry x="340" y="270" width="120" height="80" as="geometry" />
        </mxCell>
        <mxCell id="ek-TfXTonzhBqveceZcR-9" value="" style="curved=1;endArrow=classic;html=1;rounded=0;exitX=0.5;exitY=1;exitDx=0;exitDy=0;entryX=0.5;entryY=0;entryDx=0;entryDy=0;" edge="1" parent="1" source="ek-TfXTonzhBqveceZcR-6" target="ek-TfXTonzhBqveceZcR-8">
          <mxGeometry width="50" height="50" relative="1" as="geometry">
            <mxPoint x="410" y="250" as="sourcePoint" />
            <mxPoint x="460" y="200" as="targetPoint" />
            <Array as="points">
              <mxPoint x="440" y="210" />
            </Array>
          </mxGeometry>
        </mxCell>
        <mxCell id="ek-TfXTonzhBqveceZcR-10" value="Not logget in" style="edgeLabel;html=1;align=center;verticalAlign=middle;resizable=0;points=[];" vertex="1" connectable="0" parent="ek-TfXTonzhBqveceZcR-9">
          <mxGeometry x="0.4606" y="4" relative="1" as="geometry">
            <mxPoint as="offset" />
          </mxGeometry>
        </mxCell>
        <mxCell id="ek-TfXTonzhBqveceZcR-11" value="SigUpScreen&lt;br&gt;and create a profile" style="ellipse;whiteSpace=wrap;html=1;" vertex="1" parent="1">
          <mxGeometry x="270" y="440" width="120" height="80" as="geometry" />
        </mxCell>
        <mxCell id="ek-TfXTonzhBqveceZcR-13" value="" style="curved=1;endArrow=classic;html=1;rounded=0;exitX=0.5;exitY=1;exitDx=0;exitDy=0;entryX=0.5;entryY=0;entryDx=0;entryDy=0;" edge="1" parent="1" source="ek-TfXTonzhBqveceZcR-8" target="ek-TfXTonzhBqveceZcR-11">
          <mxGeometry width="50" height="50" relative="1" as="geometry">
            <mxPoint x="420" y="420" as="sourcePoint" />
            <mxPoint x="470" y="370" as="targetPoint" />
            <Array as="points">
              <mxPoint x="340" y="370" />
            </Array>
          </mxGeometry>
        </mxCell>
        <mxCell id="ek-TfXTonzhBqveceZcR-14" value="if user has not an account" style="edgeLabel;html=1;align=center;verticalAlign=middle;resizable=0;points=[];" vertex="1" connectable="0" parent="ek-TfXTonzhBqveceZcR-13">
          <mxGeometry x="0.0953" y="-6" relative="1" as="geometry">
            <mxPoint as="offset" />
          </mxGeometry>
        </mxCell>
        <mxCell id="ek-TfXTonzhBqveceZcR-15" value="LoggedIn&lt;br&gt;State: Whether the user is in a group" style="rounded=0;whiteSpace=wrap;html=1;" vertex="1" parent="1">
          <mxGeometry x="779" y="145" width="120" height="60" as="geometry" />
        </mxCell>
        <mxCell id="ek-TfXTonzhBqveceZcR-16" value="Join/Create group screen" style="ellipse;whiteSpace=wrap;html=1;" vertex="1" parent="1">
          <mxGeometry x="720" y="310" width="120" height="80" as="geometry" />
        </mxCell>
        <mxCell id="ek-TfXTonzhBqveceZcR-17" value="" style="curved=1;endArrow=classic;html=1;rounded=0;exitX=0.5;exitY=1;exitDx=0;exitDy=0;entryX=0.5;entryY=0;entryDx=0;entryDy=0;" edge="1" parent="1" source="ek-TfXTonzhBqveceZcR-15" target="ek-TfXTonzhBqveceZcR-16">
          <mxGeometry width="50" height="50" relative="1" as="geometry">
            <mxPoint x="766" y="295" as="sourcePoint" />
            <mxPoint x="816" y="245" as="targetPoint" />
            <Array as="points">
              <mxPoint x="800" y="230" />
            </Array>
          </mxGeometry>
        </mxCell>
        <mxCell id="ek-TfXTonzhBqveceZcR-27" value="user not in a group" style="edgeLabel;html=1;align=center;verticalAlign=middle;resizable=0;points=[];" vertex="1" connectable="0" parent="ek-TfXTonzhBqveceZcR-17">
          <mxGeometry x="0.0461" y="8" relative="1" as="geometry">
            <mxPoint as="offset" />
          </mxGeometry>
        </mxCell>
        <mxCell id="ek-TfXTonzhBqveceZcR-23" value="GroupScreen" style="ellipse;whiteSpace=wrap;html=1;" vertex="1" parent="1">
          <mxGeometry x="1020" y="250" width="120" height="80" as="geometry" />
        </mxCell>
        <mxCell id="ek-TfXTonzhBqveceZcR-24" value="" style="curved=1;endArrow=classic;html=1;rounded=0;exitX=1;exitY=0.5;exitDx=0;exitDy=0;entryX=0.5;entryY=0;entryDx=0;entryDy=0;" edge="1" parent="1" target="ek-TfXTonzhBqveceZcR-23" source="ek-TfXTonzhBqveceZcR-15">
          <mxGeometry width="50" height="50" relative="1" as="geometry">
            <mxPoint x="1119" y="217.5" as="sourcePoint" />
            <mxPoint x="1096" y="257.5" as="targetPoint" />
            <Array as="points">
              <mxPoint x="1000" y="170" />
            </Array>
          </mxGeometry>
        </mxCell>
        <mxCell id="ek-TfXTonzhBqveceZcR-26" value="user in a group" style="edgeLabel;html=1;align=center;verticalAlign=middle;resizable=0;points=[];" vertex="1" connectable="0" parent="ek-TfXTonzhBqveceZcR-24">
          <mxGeometry x="-0.1531" y="-11" relative="1" as="geometry">
            <mxPoint as="offset" />
          </mxGeometry>
        </mxCell>
        <mxCell id="ek-TfXTonzhBqveceZcR-28" value="CreateScreen" style="ellipse;whiteSpace=wrap;html=1;" vertex="1" parent="1">
          <mxGeometry x="840" y="505" width="120" height="80" as="geometry" />
        </mxCell>
        <mxCell id="ek-TfXTonzhBqveceZcR-29" value="" style="curved=1;endArrow=classic;html=1;rounded=0;exitX=1;exitY=1;exitDx=0;exitDy=0;entryX=0.5;entryY=0;entryDx=0;entryDy=0;" edge="1" parent="1" target="ek-TfXTonzhBqveceZcR-28" source="ek-TfXTonzhBqveceZcR-16">
          <mxGeometry width="50" height="50" relative="1" as="geometry">
            <mxPoint x="849" y="215" as="sourcePoint" />
            <mxPoint x="826" y="255" as="targetPoint" />
            <Array as="points">
              <mxPoint x="880" y="400" />
            </Array>
          </mxGeometry>
        </mxCell>
        <mxCell id="ek-TfXTonzhBqveceZcR-30" value="user wants to create a group" style="edgeLabel;html=1;align=center;verticalAlign=middle;resizable=0;points=[];" vertex="1" connectable="0" parent="ek-TfXTonzhBqveceZcR-29">
          <mxGeometry x="0.0461" y="8" relative="1" as="geometry">
            <mxPoint as="offset" />
          </mxGeometry>
        </mxCell>
        <mxCell id="ek-TfXTonzhBqveceZcR-31" value="JoinScreen" style="ellipse;whiteSpace=wrap;html=1;" vertex="1" parent="1">
          <mxGeometry x="610" y="500" width="120" height="80" as="geometry" />
        </mxCell>
        <mxCell id="ek-TfXTonzhBqveceZcR-32" value="" style="curved=1;endArrow=classic;html=1;rounded=0;exitX=0;exitY=1;exitDx=0;exitDy=0;entryX=0.5;entryY=0;entryDx=0;entryDy=0;" edge="1" parent="1" target="ek-TfXTonzhBqveceZcR-31" source="ek-TfXTonzhBqveceZcR-16">
          <mxGeometry width="50" height="50" relative="1" as="geometry">
            <mxPoint x="689" y="380" as="sourcePoint" />
            <mxPoint x="666" y="420" as="targetPoint" />
            <Array as="points">
              <mxPoint x="690" y="390" />
            </Array>
          </mxGeometry>
        </mxCell>
        <mxCell id="ek-TfXTonzhBqveceZcR-33" value="user wants to join a group" style="edgeLabel;html=1;align=center;verticalAlign=middle;resizable=0;points=[];" vertex="1" connectable="0" parent="ek-TfXTonzhBqveceZcR-32">
          <mxGeometry x="0.0461" y="8" relative="1" as="geometry">
            <mxPoint as="offset" />
          </mxGeometry>
        </mxCell>
      </root>
    </mxGraphModel>
  </diagram>
</mxfile>
